<svg xmlns="http://www.w3.org/2000/svg" viewBox="0 0 32 32" fill="none">
  <path d="M16 4C10.477 4 6 8.477 6 14v10c0 .552.448 1 1 1 .552 0 1-.448 1-1v-2c0-.552.448-1 1-1s1 .448 1 1v2c0 .552.448 1 1 1s1-.448 1-1v-2c0-.552.448-1 1-1s1 .448 1 1v2c0 .552.448 1 1 1s1-.448 1-1v-2c0-.552.448-1 1-1s1 .448 1 1v2c0 .552.448 1 1 1s1-.448 1-1v-2c0-.552.448-1 1-1s1 .448 1 1v2c0 .552.448 1 1 1 .552 0 1-.448 1-1V14c0-5.523-4.477-10-10-10z" fill="#C4FF0D"/>
  <circle cx="12" cy="13" r="1.5" fill="#0A0A0A"/>
  <circle cx="20" cy="13" r="1.5" fill="#0A0A0A"/>
</svg>
